<svg id="图层_1" data-name="图层 1" xmlns="http://www.w3.org/2000/svg" viewBox="0 0 157.2366 157.2367"><defs><style>.cls-1,.cls-2{fill:none;stroke:#000;stroke-linecap:round;stroke-linejoin:round;stroke-opacity:0.698;}.cls-1{stroke-width:2.5px;}.cls-2{stroke-width:2.3374px;}.cls-3{fill:#404040;}.cls-4{fill:gray;}.cls-5{fill:#643;}.cls-6{fill:#85a;}.cls-7{fill:#007fff;}.cls-8{fill:#9bc;}.cls-9{fill:#7a5;}.cls-10{fill:#ff8000;}</style></defs><title>temp</title><path class="cls-1" d="M519.2128,308.3439l80.0965,80.0966" transform="translate(-503.8488 -246.5677)"/><path class="cls-1" d="M525.5767,382.0765,645.7216,261.9316" transform="translate(-503.8488 -246.5677)"/><path class="cls-1" d="M521.3859,299.1343l122.16-40.72" transform="translate(-503.8488 -246.5677)"/><path class="cls-2" d="M649.4044,263.6108l-40.8865,122.66" transform="translate(-503.8488 -246.5677)"/><path class="cls-1" d="M559.261,348.3922,516.87,263.6108" transform="translate(-503.8488 -246.5677)"/><path class="cls-1" d="M521.3859,258.4033l122.1662,40.731" transform="translate(-503.8488 -246.5677)"/><path class="cls-1" d="M644.0424,306.0015,559.261,348.3922" transform="translate(-503.8488 -246.5677)"/><path class="cls-1" d="M559.261,348.3922l84.7814,42.3907" transform="translate(-503.8488 -246.5677)"/><path class="cls-1" d="M559.261,348.3922l42.3908-84.7814" transform="translate(-503.8488 -246.5677)"/><path class="cls-1" d="M608.5179,264.1015l40.723,122.1691" transform="translate(-503.8488 -246.5677)"/><path class="cls-1" d="M512.7816,310.98v65.8244" transform="translate(-503.8488 -246.5677)"/><path class="cls-1" d="M530.8488,394.6723h65.8245" transform="translate(-503.8488 -246.5677)"/><path class="cls-1" d="M521.8488,255.3859h74.8245" transform="translate(-503.8488 -246.5677)"/><path class="cls-1" d="M614.6733,255.6776h28.4121" transform="translate(-503.8488 -246.5677)"/><path class="cls-1" d="M652.0852,264.5677V292.98" transform="translate(-503.8488 -246.5677)"/><path class="cls-1" d="M651.9894,310.98v74.8244" transform="translate(-503.8488 -246.5677)"/><path class="cls-1" d="M643.0854,394.9823H614.6733" transform="translate(-503.8488 -246.5677)"/><path class="cls-1" d="M512.7814,292.98V264.5677" transform="translate(-503.8488 -246.5677)"/><path class="cls-3" d="M539.8488,385.8044a18,18,0,1,1-18-18A18,18,0,0,1,539.8488,385.8044Z" transform="translate(-503.8488 -246.5677)"/><path class="cls-4" d="M661.0854,255.5677a9,9,0,1,1-9-9A9,9,0,0,1,661.0854,255.5677Zm-9.6884-2.6135a2.01,2.01,0,0,0-.5918-.7646,2.6954,2.6954,0,0,0-.961-.4717,4.86,4.86,0,0,0-1.3154-.1611h-2.2441v7.6582h1.4531v-2.461h.7324a4.112,4.112,0,0,0,1.3594-.205,2.7164,2.7164,0,0,0,.9785-.5743,2.3849,2.3849,0,0,0,.5918-.8759,2.9936,2.9936,0,0,0,.1992-1.1045A2.5351,2.5351,0,0,0,651.397,252.9542Zm-1.4121,1.7432a1.2789,1.2789,0,0,1-.2989.4629,1.3011,1.3011,0,0,1-.4834.2959,1.9658,1.9658,0,0,1-.6621.1025h-.8027v-2.8066h.7559a2.38,2.38,0,0,1,.7089.0937,1.3249,1.3249,0,0,1,.4952.27,1.0914,1.0914,0,0,1,.2929.4248,1.5172,1.5172,0,0,1,.0967.5537A1.6878,1.6878,0,0,1,649.9849,254.6974Zm7.9013,4.5176v-3.9961a3.0063,3.0063,0,0,0-.1142-.8584,1.8125,1.8125,0,0,0-.3428-.6563,1.5382,1.5382,0,0,0-.5684-.4219,1.9661,1.9661,0,0,0-.7968-.1494,2.3009,2.3009,0,0,0-.5918.07,2.023,2.023,0,0,0-.4922.2022,2.2158,2.2158,0,0,0-.4248.3193,4.1153,4.1153,0,0,0-.378.416l-.0351-.8789h-1.2363v5.9532h1.43v-3.7676a5.064,5.064,0,0,1,.7-.7969,1.038,1.038,0,0,1,.6944-.293q.7266,0,.7265.9786v3.8789Z" transform="translate(-503.8488 -246.5677)"/><path class="cls-5" d="M661.0854,301.98a9,9,0,1,1-9-9A9,9,0,0,1,661.0854,301.98Zm-10.102-3.8877H646.747v1.1894h2.7715v3.9844a1.7984,1.7984,0,0,1-.1055.6592,1.25,1.25,0,0,1-.2695.4307.9535.9535,0,0,1-.3721.2343,1.25,1.25,0,0,1-.4013.07,2.5066,2.5066,0,0,1-.4629-.0439,3.0644,3.0644,0,0,1-.876-.3076,2.0121,2.0121,0,0,1-.3428-.2285v1.3945a3.5814,3.5814,0,0,0,.7676.2812,3.7047,3.7047,0,0,0,.9141.1114,3.3711,3.3711,0,0,0,1.1308-.1729,2.23,2.23,0,0,0,.8145-.4892,2.0657,2.0657,0,0,0,.498-.7618,2.74,2.74,0,0,0,.17-.9843Zm7.3769,4.0195a3.9549,3.9549,0,0,0-.0967-1.0635,2.02,2.02,0,0,0-.3515-.7646,1.5125,1.5125,0,0,0-.586-.46,1.948,1.948,0,0,0-.8-.1552,2.4359,2.4359,0,0,0-.6035.07,1.9336,1.9336,0,0,0-.501.2021,2.0729,2.0729,0,0,0-.41.3135,2.3567,2.3567,0,0,0-.3311.41l-.0527-.8672H653.333v5.9531h1.4648v-3.7676a3.7567,3.7567,0,0,1,.7412-.8584,1.0774,1.0774,0,0,1,.6533-.2607.7108.7108,0,0,1,.3223.07.5992.5992,0,0,1,.2373.2226,1.0948,1.0948,0,0,1,.1406.3868,2.6354,2.6354,0,0,1,.0323.5683Z" transform="translate(-503.8488 -246.5677)"/><path class="cls-6" d="M661.0854,394.8044a9,9,0,1,1-9-9A9,9,0,0,1,661.0854,394.8044Zm-9.761,4.1731v-7.6582h-1.3125v5.4961l-.3691-.8965-2.0918-4.6h-1.77v7.6582h1.3125v-5.5547l.4219.9844,2.0508,4.57Zm6.8731,0-2.6133-3.24,2.414-2.7129h-1.7871l-2.08,2.5195v-4.8457h-1.43v8.2793h1.43V396.001l2.1973,2.9765Z" transform="translate(-503.8488 -246.5677)"/><path class="cls-7" d="M614.6733,394.8044a9,9,0,1,1-9-9A9,9,0,0,1,614.6733,394.8044ZM606.11,391.041h-1.5352l-1.2832,4.5234-.4336,1.6-.416-1.5117-1.2949-4.6113h-1.6348l2.3379,7.6582h1.91Zm5.7246,6.457q-.2754.0762-.6094.1348a3.9554,3.9554,0,0,1-.6855.0586,1.0134,1.0134,0,0,1-.7852-.2608,1.1188,1.1188,0,0,1-.2343-.7705v-2.8007h2.3144v-1.1133H609.52v-1.9043l-1.4649.3808v1.5235h-1.6v1.1133h1.6v2.9062a2.9079,2.9079,0,0,0,.1319.9287,1.49,1.49,0,0,0,.41.6416,1.7573,1.7573,0,0,0,.7031.375,3.6569,3.6569,0,0,0,1.0108.1231,5.5929,5.5929,0,0,0,.7441-.0528q.3925-.0526.7793-.1406Z" transform="translate(-503.8488 -246.5677)"/><path class="cls-8" d="M614.6733,255.5677a9,9,0,1,1-9-9A9,9,0,0,1,614.6733,255.5677Zm-9.6621,3.6473v-7.6582H603.57v3.0761h-2.6016v-3.0761h-1.4414v7.6582h1.4414v-3.334H603.57v3.334Zm6.8086,0v-4.2715a2.3884,2.3884,0,0,0-.3106-1.3447,1.083,1.083,0,0,0-.9609-.4541,1.31,1.31,0,0,0-.3838.0527.9582.9582,0,0,0-.3223.1728,1.6277,1.6277,0,0,0-.2871.3077,3.7277,3.7277,0,0,0-.2783.4511,1.1023,1.1023,0,0,0-.2959-.7236,1.028,1.028,0,0,0-.7588-.2607,1.2517,1.2517,0,0,0-.3779.0527.9381.9381,0,0,0-.3135.1728,1.4715,1.4715,0,0,0-.2754.3077,3.56,3.56,0,0,0-.2578.4511l-.0234-.8672h-1.0606v5.9532H607.15v-3.8614a3.644,3.644,0,0,1,.4161-.8379q.1875-.246.34-.246a.2937.2937,0,0,1,.1875.0556.3343.3343,0,0,1,.1055.167,1.2267,1.2267,0,0,1,.0468.2783q.0119.1671.0118.39v4.0547h1.2246v-3.8614a3.9393,3.9393,0,0,1,.3984-.8379.473.473,0,0,1,.3574-.246.2813.2813,0,0,1,.1846.0556.3443.3443,0,0,1,.1025.167,1.2206,1.2206,0,0,1,.0469.2783q.0117.1671.0117.39v4.0547Z" transform="translate(-503.8488 -246.5677)"/><path class="cls-9" d="M521.8488,255.5677a9,9,0,1,1-9-9A9,9,0,0,1,521.8488,255.5677Zm-10.6846-3.5771h-4.2363v1.19h2.7715v3.9843a1.8005,1.8005,0,0,1-.1055.6592,1.25,1.25,0,0,1-.2695.4307.9535.9535,0,0,1-.3721.2343,1.25,1.25,0,0,1-.4013.07,2.5068,2.5068,0,0,1-.4629-.044,3.0616,3.0616,0,0,1-.876-.3076,2.0121,2.0121,0,0,1-.3428-.2285v1.3945a3.5867,3.5867,0,0,0,.7676.2813,3.7094,3.7094,0,0,0,.9141.1113,3.3711,3.3711,0,0,0,1.1308-.1729,2.2308,2.2308,0,0,0,.8145-.4892,2.0674,2.0674,0,0,0,.498-.7617,2.7405,2.7405,0,0,0,.17-.9844Zm7.6641,7.6582-2.6133-3.24,2.4141-2.7129H516.842l-2.08,2.5195V251.37h-1.43v8.2793h1.43v-2.9766l2.1973,2.9766Z" transform="translate(-503.8488 -246.5677)"/><path class="cls-10" d="M521.8488,301.98a9,9,0,1,1-9-9A9,9,0,0,1,521.8488,301.98Zm-10.1133,4.0722v-1.2187H508.589v-2.127h3v-1.1894h-3v-1.9043h3.1465V298.394h-4.6114v7.6582Zm6.7031,0v-8.2793h-1.43v2.3262a3.157,3.157,0,0,0-.4014-.0762,3.4826,3.4826,0,0,0-.4482-.0292,3.7955,3.7955,0,0,0-1.2246.19,2.5664,2.5664,0,0,0-.9727.5859,2.7171,2.7171,0,0,0-.6416.9961,3.9467,3.9467,0,0,0-.2314,1.4209,4.88,4.88,0,0,0,.1465,1.2422,2.8668,2.8668,0,0,0,.4248.9463,1.9132,1.9132,0,0,0,.6884.6006,2.0214,2.0214,0,0,0,.9375.2109,2.06,2.06,0,0,0,1.0664-.2783,2.2989,2.2989,0,0,0,.4278-.3193,4.4171,4.4171,0,0,0,.3867-.4161l.0352.8789Zm-3.7442-3.7646a1.8723,1.8723,0,0,1,.3018-.63,1.3729,1.3729,0,0,1,.4717-.3984,1.3453,1.3453,0,0,1,.6211-.1406,3.0708,3.0708,0,0,1,.5009.041,2.2118,2.2118,0,0,1,.419.1054v2.6016a5.0554,5.0554,0,0,1-.6973.8027,1.0272,1.0272,0,0,1-.6914.293.9241.9241,0,0,1-.4394-.1025.8385.8385,0,0,1-.3252-.3252,1.79,1.79,0,0,1-.1992-.5713,4.497,4.497,0,0,1-.0674-.8408A3.0612,3.0612,0,0,1,514.6944,302.2876Z" transform="translate(-503.8488 -246.5677)"/><path d="M517.1071,383.8884q0,.36-.0395.8789a9.6156,9.6156,0,0,1-.1582,1.1211,10.23,10.23,0,0,1-.334,1.248,6.6629,6.6629,0,0,1-1.45,2.43,5.2872,5.2872,0,0,1-1.2305.9707,6.5645,6.5645,0,0,1-1.6523.6641,8.4031,8.4031,0,0,1-2.1314.2461h-3.0058l2.3027-11.4873h3.2959a4.8438,4.8438,0,0,1,3.2915.9805A3.7238,3.7238,0,0,1,517.1071,383.8884Zm-2.32.1846a3.3637,3.3637,0,0,0-.1318-.9844,1.7042,1.7042,0,0,0-.4219-.7207,1.882,1.882,0,0,0-.7559-.4434,3.6447,3.6447,0,0,0-1.1338-.1543h-1.1513l-1.5733,7.8662h.9053a3.97,3.97,0,0,0,1.6-.2949,3.6157,3.6157,0,0,0,1.147-.7685,4.0988,4.0988,0,0,0,.769-1.0811,6.54,6.54,0,0,0,.4615-1.2217,7.9677,7.9677,0,0,0,.2241-1.1953A9.69,9.69,0,0,0,514.7868,384.073Z" transform="translate(-503.8488 -246.5677)"/><path d="M521.3874,382.5173l-1.169,5.8184a1.964,1.964,0,0,0,.044,1.1211.6287.6287,0,0,0,.624.3906,1.5082,1.5082,0,0,0,.8613-.3252,4.457,4.457,0,0,0,.87-.835,6.1952,6.1952,0,0,0,.7251-1.1338,4.7158,4.7158,0,0,0,.4262-1.2216l.7559-3.8145h2.1357l-.9492,4.7725q-.0526.2813-.1055.6025t-.11.791q-.0571.47-.1275,1.1377t-.1582,1.626h-1.749l.07-1.6172a4.45,4.45,0,0,1-.51.6289,3.96,3.96,0,0,1-.7164.584,4.217,4.217,0,0,1-.9052.4355,3.305,3.305,0,0,1-1.0767.1709,2.7867,2.7867,0,0,1-1.2085-.2373,1.8924,1.8924,0,0,1-.7822-.6718,2.3541,2.3541,0,0,1-.3516-1.0547,4.5116,4.5116,0,0,1,.0923-1.3848l1.1777-5.7832Z" transform="translate(-503.8488 -246.5677)"/><path d="M530.22,391.6491a2.4191,2.4191,0,0,1-1.9731-.8086,3.4935,3.4935,0,0,1-.6724-2.2939,8.1864,8.1864,0,0,1,.36-2.4824,5.7278,5.7278,0,0,1,1.0459-1.961,4.7671,4.7671,0,0,1,1.6831-1.2822,5.332,5.332,0,0,1,2.2632-.4619,7.1156,7.1156,0,0,1,1.2085.0928,7.4392,7.4392,0,0,1,.9273.2148l1.5293-.3252-.9844,4.9483q-.0528.2813-.1055.6025t-.11.791q-.0571.47-.1275,1.1377t-.1582,1.626h-1.749l.07-1.6172a4.4515,4.4515,0,0,1-.51.6289,3.9558,3.9558,0,0,1-.7163.584,4.217,4.217,0,0,1-.9052.4355A3.305,3.305,0,0,1,530.22,391.6491Zm3.8584-7.4179a3.8507,3.8507,0,0,0-.5757-.1494,3.5594,3.5594,0,0,0-.6284-.0528,2.5024,2.5024,0,0,0-1.0942.2246,2.6918,2.6918,0,0,0-.813.5879,3.3021,3.3021,0,0,0-.5669.8311,5.561,5.561,0,0,0-.356.9492,6.2953,6.2953,0,0,0-.1846.9541,7.5589,7.5589,0,0,0-.0527.83,1.9635,1.9635,0,0,0,.2417,1.0722.8174.8174,0,0,0,.7339.3692,1.5084,1.5084,0,0,0,.8613-.3252,4.4538,4.4538,0,0,0,.87-.835,6.1846,6.1846,0,0,0,.7251-1.1338,4.72,4.72,0,0,0,.4263-1.2216Z" transform="translate(-503.8488 -246.5677)"/></svg>